<svg xmlns="http://www.w3.org/2000/svg" viewBox="0 0 512 512" width="512" height="512">
  <title>Burn</title>
  <rect x="64" y="452" width="384" height="44" rx="14" fill="#8D4A1F"/>
  <rect x="64" y="452" width="384" height="14" rx="7" fill="#A85C2A"/>
  <path d="M256 480C150 480 76 414 76 318C76 250 102 202 136 158C146 196 152 222 166 240C170 150 208 88 206 18C300 62 354 132 352 208C351 226 350 238 354 250C374 248 394 238 410 226C432 260 440 290 440 318C440 414 362 480 256 480Z" fill="#F4473A" stroke="#C62323" stroke-width="12" stroke-linejoin="round"/>
  <path d="M256 468C174 468 116 420 110 360C104 300 156 246 244 240C340 234 402 298 402 364C402 426 342 468 256 468Z" fill="#FF7F11"/>
  <path d="M256 468C202 468 164 430 164 382C164 352 172 336 186 322C188 344 198 360 214 368C206 310 230 250 290 190C286 250 330 282 350 332C362 362 358 400 346 424C330 454 298 468 256 468Z" fill="#FFF3A0"/>
</svg>
